<?xml version="1.0" encoding="UTF-8"?>
<svg width="384px" height="448px" viewBox="0 0 384 448" version="1.1" xmlns="http://www.w3.org/2000/svg" xmlns:xlink="http://www.w3.org/1999/xlink">
    <title>U+004A - Latin Capital Letter J</title>
    <g id="Glyphs" stroke="none" stroke-width="1" fill="none" fill-rule="evenodd">
        <g id="U+004A---Latin-Capital-Letter-J" fill="#AE0000">
            <path d="M352,32 L249.107,416 L32,416 L32,352 L199.999,351.999 L233.128047,228.362509 C189.529188,267.789577 139.715837,288 84.9019963,288 L32,288 L32,224 L84.9019963,224 C164.284032,224 231.163007,162.373553 285.158877,32 L352,32 Z" id="Path"></path>
            <path d="M352,32 L249.107,416 L32,416 L32,352 L199.999,351.999 L233.128047,228.362509 C189.529188,267.789577 139.715837,288 84.9019963,288 L32,288 L32,224 L84.9019963,224 C164.284032,224 231.163007,162.373553 285.158877,32 L352,32 Z" id="Path"></path>
        </g>
    </g>
</svg>