<?xml version="1.0" encoding="UTF-8"?>
<svg width="640px" height="870px" viewBox="0 0 640 870" version="1.1" xmlns="http://www.w3.org/2000/svg" xmlns:xlink="http://www.w3.org/1999/xlink">
    <title>U+0066 - Latin Small Letter F</title>
    <g id="Thin" stroke="none" stroke-width="1" fill="none" fill-rule="evenodd">
        <g id="U+0066---Latin-Small-Letter-F" fill="#199ED9">
            <path d="M70,525 L70,489.992 L73.893689,489.978741 C155.067829,489.380545 225.315852,477.531515 285.000671,454.354198 L285,250 L355,250 L355.001222,418.917833 C416.488082,379.286157 462.740319,323.027982 494.40044,250.006188 L570,250 L564.813368,262.983822 C521.458809,371.51129 451.113923,450.456434 355.003443,499.557875 L355,729.999 L570,730 L570,800 L70,800 L70,525 Z M285.005331,528.56979 C240.90473,543.060046 192.54175,552.549003 140,557.018783 L140,729.999 L285,729.999 L285.005331,528.56979 Z" id="Shape"></path>
        </g>
    </g>
</svg>