<?xml version="1.0" encoding="UTF-8"?>
<svg width="384px" height="448px" viewBox="0 0 384 448" version="1.1" xmlns="http://www.w3.org/2000/svg" xmlns:xlink="http://www.w3.org/1999/xlink">
    <title>U+007B - Left Curly Bracket</title>
    <g id="Glyphs" stroke="none" stroke-width="1" fill="none" fill-rule="evenodd">
        <g id="U+007B---Left-Curly-Bracket" fill="#AE0000" fill-rule="nonzero">
            <path d="M279,448 C238.255907,448 205.29517,435.181936 182.703789,408.825324 C161.290115,383.842705 151.202632,349.036165 151.003024,305.327237 L151,304 C151,279.93371 143.652199,261.564208 128.63299,246.884861 L104.836891,223.627232 L129.005474,200.756919 C143.565876,186.978662 150.845929,169.016662 150.99758,144.77578 L151,144 C151,99.6679996 161.073816,64.4096445 182.703789,39.174676 C205.29517,12.8180642 238.255907,-4.54747351e-13 279,-4.54747351e-13 L279,64 C255.744093,64 240.70483,69.8486025 231.296211,80.825324 C221.029885,92.8027051 215.118968,113.251365 215.001776,143.092837 L215,144 C215,174.072388 207.676074,200.745669 193.087226,223.206242 L192.437,224.196 L192.767218,224.700244 C207.344645,247.13849 214.794436,273.413001 214.995805,302.774807 L215,304 C215,334.334666 220.926184,355.076311 231.296211,367.174676 C240.70483,378.151397 255.744093,384 279,384 L279,448 Z" id="Path"></path>
        </g>
    </g>
</svg>