<?xml version="1.0" encoding="UTF-8"?>
<svg width="640px" height="870px" viewBox="0 0 640 870" version="1.1" xmlns="http://www.w3.org/2000/svg" xmlns:xlink="http://www.w3.org/1999/xlink">
    <title>U+007D - Right Curly Bracket</title>
    <g id="Thin" stroke="none" stroke-width="1" fill="none" fill-rule="evenodd">
        <g id="U+007D---Right-Curly-Bracket" fill="#199ED9" fill-rule="nonzero">
            <path d="M195,35 C289.486312,35 362.931993,70.7435649 411.376048,141.471885 C457.65864,209.044469 480,306.899625 480,435 C480,563.100375 457.65864,660.955531 411.376048,728.528115 C362.931993,799.256435 289.486312,835 195,835 L160,835 L160,765 L195,765 C267.180355,765 318.734673,739.910232 353.623952,688.971885 C386.816603,640.510614 405.783118,567.529814 409.373171,470.002628 L215,470 L215,400 L409.373208,399.998373 C405.783248,302.470685 386.816717,229.489552 353.623952,181.028115 C318.734673,130.089768 267.180355,105 195,105 L160,105 L160,35 L195,35 Z" id="Path"></path>
        </g>
    </g>
</svg>