<?xml version="1.0" encoding="UTF-8"?>
<svg width="640px" height="870px" viewBox="0 0 640 870" version="1.1" xmlns="http://www.w3.org/2000/svg" xmlns:xlink="http://www.w3.org/1999/xlink">
    <title>U+0023 - Number Sign</title>
    <g id="Thin" stroke="none" stroke-width="1" fill="none" fill-rule="evenodd">
        <g id="U+0023---Number-Sign" fill="#199ED9">
            <path d="M250,250 L250,389 L390,389 L390,250 L460,250 L460,389 L570,389 L570,459 L460,459 L460,599 L570,599 L570,669 L460,669 L460,800 L390,800 L390,669 L250,669 L250,800 L180,800 L180,669 L70,669 L70,599 L180,599 L180,459 L70,459 L70,389 L180,389 L180,250 L250,250 Z M390,459 L250,459 L250,599 L390,599 L390,459 Z" id="Combined-Shape"></path>
        </g>
    </g>
</svg>