<?xml version="1.0" encoding="UTF-8"?>
<svg width="640px" height="870px" viewBox="0 0 640 870" version="1.1" xmlns="http://www.w3.org/2000/svg" xmlns:xlink="http://www.w3.org/1999/xlink">
    <title>U+007E - Tilde</title>
    <g id="Thin" stroke="none" stroke-width="1" fill="none" fill-rule="evenodd">
        <g id="U+007E---Tilde" fill="#199ED9" fill-rule="nonzero">
            <path d="M236.666667,400 C268.160994,400 293.445595,415.292126 313.855849,441.743815 C321.304129,451.396787 328.086417,462.434264 335.042342,475.691438 L335.860288,477.256867 L336.66022,478.801453 C337.122724,479.698675 337.579006,480.591272 338.034267,481.489772 L338.814686,483.037802 C341.575491,488.541815 344.407913,494.483024 348.468013,503.200485 L353.872411,514.842307 C366.752549,542.493812 373.210094,554.588466 381.30526,565.157022 L381.564182,565.493815 C389.799761,576.167126 396.137185,580 403.333333,580 C420.133127,580 439.282735,569.659211 460.985043,546.220719 C485.917846,519.293292 511.872175,477.247278 538.238658,420.295675 L601.761342,449.704325 C572.572269,512.752722 542.971043,560.706708 512.34829,593.779281 C478.495043,630.340789 442.089095,650 403.333333,650 C371.839006,650 346.554405,634.707874 326.144151,608.256185 C318.695871,598.603213 311.913583,587.565736 304.957658,574.308562 L304.139712,572.743133 L303.33978,571.198547 C302.877276,570.301325 302.420994,569.408728 301.965733,568.510228 L301.185314,566.962198 C298.424509,561.458185 295.592087,555.516976 291.531987,546.799515 L286.127589,535.157693 C273.247451,507.506188 266.789906,495.411534 258.69474,484.842978 L258.435818,484.506185 C250.200239,473.832874 243.862815,470 236.666667,470 C219.866873,470 200.717265,480.340789 179.014957,503.779281 C154.082154,530.706708 128.127825,572.752722 101.761342,629.704325 L38.2386583,600.295675 C67.427731,537.247278 97.028957,489.293292 127.65171,456.220719 C161.504957,419.659211 197.910905,400 236.666667,400 Z" id="Path-5"></path>
        </g>
    </g>
</svg>