<?xml version="1.0" encoding="UTF-8"?>
<svg width="640px" height="870px" viewBox="0 0 640 870" version="1.1" xmlns="http://www.w3.org/2000/svg" xmlns:xlink="http://www.w3.org/1999/xlink">
    <title>U+007B - Left Curly Bracket</title>
    <g id="Thin" stroke="none" stroke-width="1" fill="none" fill-rule="evenodd">
        <g id="U+007B---Left-Curly-Bracket" fill="#199ED9" fill-rule="nonzero">
            <path d="M480,35 L480,105 L445,105 C372.819645,105 321.265327,130.089768 286.376048,181.028115 C253.183283,229.489552 234.216752,302.470685 230.626792,399.998373 L425,400 L425,470 L230.626829,470.002628 C234.216882,567.529814 253.183397,640.510614 286.376048,688.971885 C321.265327,739.910232 372.819645,765 445,765 L480,765 L480,835 L445,835 C350.513688,835 277.068007,799.256435 228.623952,728.528115 C182.34136,660.955531 160,563.100375 160,435 C160,306.899625 182.34136,209.044469 228.623952,141.471885 C277.068007,70.7435649 350.513688,35 445,35 L480,35 Z" id="Path"></path>
        </g>
    </g>
</svg>