<?xml version="1.0" encoding="UTF-8"?>
<svg width="384px" height="448px" viewBox="0 0 384 448" version="1.1" xmlns="http://www.w3.org/2000/svg" xmlns:xlink="http://www.w3.org/1999/xlink">
    <title>U+007D - Right Curly Bracket</title>
    <g id="Glyphs" stroke="none" stroke-width="1" fill="none" fill-rule="evenodd">
        <g id="U+007D---Right-Curly-Bracket" fill="#AE0000" fill-rule="nonzero">
            <path d="M105,0 C145.744093,0 178.70483,12.8180642 201.296211,39.174676 C222.709885,64.1572949 232.797368,98.9638348 232.996976,142.672763 L233,144 C233,168.06629 240.347801,186.435792 255.36701,201.115139 L279.163109,224.372768 L254.994526,247.243081 C240.434124,261.021338 233.154071,278.983338 233.00242,303.22422 L233,304 C233,348.332 222.926184,383.590355 201.296211,408.825324 C178.70483,435.181936 145.744093,448 105,448 L105,384 C128.255907,384 143.29517,378.151397 152.703789,367.174676 C162.970115,355.197295 168.881032,334.748635 168.998224,304.907163 L169,304 C169,273.58972 176.489433,246.655361 191.407284,224.038257 L191.563,223.804 L191.232782,223.299756 C176.655355,200.86151 169.205564,174.586999 169.004195,145.225193 L169,144 C169,113.665334 163.073816,92.9236888 152.703789,80.825324 C143.29517,69.8486025 128.255907,64 105,64 L105,0 Z" id="Path"></path>
        </g>
    </g>
</svg>